<?xml version="1.0" encoding="UTF-8"?>
<!-- Generated by Pixelmator Pro Trial 2.4.5 -->
<svg width="184" height="184" viewBox="0 0 184 184" xmlns="http://www.w3.org/2000/svg" xmlns:xlink="http://www.w3.org/1999/xlink">
    <g id="logo-light" style="isolation:isolate">
        <linearGradient id="linearGradient1" x1="59.030193" y1="177.889411" x2="124.969815" y2="6.110823" gradientUnits="userSpaceOnUse">
            <stop offset="1e-05" stop-color="#ffe2cd" stop-opacity="1"/>
            <stop offset="1" stop-color="#fff4ef" stop-opacity="1"/>
        </linearGradient>
        <path id="Shape" fill="url(#linearGradient1)" fill-rule="evenodd" stroke="none" d="M 23 184 C 10.297573 184 0 173.702423 0 161 L 0 23 C 0 10.297577 10.297573 0 23 0 L 161 0 C 173.702423 0 184 10.297577 184 23 L 184 161 C 184 173.702423 173.702423 184 161 184 L 23 184 Z"/>
        <g id="Group-copy-2">
            <path id="Path" fill="#1f1f20" fill-rule="evenodd" stroke="none" d="M 45.820313 83.554688 C 41.85078 83.554688 38.632813 80.336731 38.632813 76.367188 L 38.632813 45.820313 C 38.632813 41.850769 41.85078 38.632813 45.820313 38.632813 L 102.960938 38.632813 C 106.930481 38.632813 110.148438 41.850769 110.148438 45.820313 C 110.148438 46.455017 110.065659 47.070297 109.911194 47.656494 L 109.952606 47.667725 L 101.990906 77.381088 C 101.498138 80.870422 98.500328 83.554688 94.875 83.554688 C 94.814964 83.554688 94.754997 83.553688 94.695313 83.552231 L 94.695313 83.554688 L 45.820313 83.554688 Z"/>
            <path id="Ellipse-copy-4" fill="#1f1f20" fill-rule="evenodd" stroke="none" d="M 45.820313 145.367188 C 41.850784 145.367188 38.632813 142.149216 38.632813 138.179688 L 38.632813 107.453125 C 38.632813 103.483612 41.850784 100.265625 45.820313 100.265625 L 86.429688 100.265625 C 90.399216 100.265625 93.617188 103.483612 93.617188 107.453125 C 93.617188 107.833977 93.587212 108.207825 93.530151 108.572662 L 93.571213 108.583542 L 85.075012 140.291016 L 85.038864 140.281189 C 84.139992 143.225357 81.40239 145.367188 78.164063 145.367188 L 45.820313 145.367188 Z"/>
            <path id="Ellipse-copy-8" fill="#1f1f20" fill-rule="evenodd" stroke="none" d="M 110.507813 145.367188 C 106.538269 145.367188 103.320313 142.149216 103.320313 138.179688 C 103.320313 137.717224 103.364601 137.265289 103.448059 136.827118 L 103.41156 136.817291 L 127.966629 45.177017 C 128.292053 41.508926 131.372314 38.632813 135.125 38.632813 L 138.179688 38.632813 C 142.149231 38.632813 145.367188 41.850784 145.367188 45.820313 L 145.367188 138.179688 C 145.367188 142.149216 142.149246 145.367188 138.179688 145.367188 L 110.507813 145.367188 Z"/>
        </g>
    </g>
</svg>
